{
  "accessors": [
    {
      "bufferView": 2,
      "componentType": 5126,
      "count": 65532,
      "max": [
        10443.119140625,
        32562.087890625,
        15268.0869140625
      ],
      "min": [
        2648.0859375,
        0,
        1455.8515625
      ],
      "type": "VEC3"
    },
    {
      "bufferView": 2,
      "byteOffset": 786384,
      "componentType": 5126,
      "count": 65532,
      "max": [
        0.99999964237213135,
        0.99985980987548828,
        0.99997490644454956
      ],
      "min": [
        -0.99999743700027466,
        -0.99999970197677612,
        -0.99999046325683594
      ],
      "type": "VEC3"
    },
    {
      "bufferView": 3,
      "componentType": 5126,
      "count": 65532,
      "max": [
        0.99991512298583984,
        0.99999964237213135,
        0.99093520641326904,
        1
      ],
      "min": [
        -0.99996638298034668,
        -0.99383354187011719,
        -0.99847918748855591,
        -1
      ],
      "type": "VEC4"
    },
    {
      "bufferView": 1,
      "componentType": 5126,
      "count": 65532,
      "max": [
        0.99802297353744507,
        0.99802297353744507
      ],
      "min": [
        0.0039530000649392605,
        0.0039530000649392605
      ],
      "type": "VEC2"
    },
    {
      "bufferView": 0,
      "componentType": 5125,
      "count": 346992,
      "max": [
        65531
      ],
      "min": [
        0
      ],
      "type": "SCALAR"
    },
    {
      "bufferView": 2,
      "byteOffset": 1572768,
      "componentType": 5126,
      "count": 65532,
      "max": [
        10423.23046875,
        30694.857421875,
        12064.6875
      ],
      "min": [
        948.32421875,
        5890.068359375,
        821.908203125
      ],
      "type": "VEC3"
    },
    {
      "bufferView": 2,
      "byteOffset": 2359152,
      "componentType": 5126,
      "count": 65532,
      "max": [
        0.99999624490737915,
        0.99998724460601807,
        0.99993973970413208
      ],
      "min": [
        -0.99999833106994629,
        -0.99993854761123657,
        -0.99997109174728394
      ],
      "type": "VEC3"
    },
    {
      "bufferView": 3,
      "byteOffset": 1048512,
      "componentType": 5126,
      "count": 65532,
      "max": [
        0.999705970287323,
        0.99999988079071045,
        0.99980467557907104,
        1
      ],
      "min": [
        -0.99994915723800659,
        -0.99966871738433838,
        -0.99992990493774414,
        -1
      ],
      "type": "VEC4"
    },
    {
      "bufferView": 1,
      "byteOffset": 524256,
      "componentType": 5126,
      "count": 65532,
      "max": [
        0.99802297353744507,
        0.99802297353744507
      ],
      "min": [
        0.0039530000649392605,
        0.0039530000649392605
      ],
      "type": "VEC2"
    },
    {
      "bufferView": 0,
      "byteOffset": 1387968,
      "componentType": 5125,
      "count": 354381,
      "max": [
        65531
      ],
      "min": [
        0
      ],
      "type": "SCALAR"
    },
    {
      "bufferView": 2,
      "byteOffset": 3145536,
      "componentType": 5126,
      "count": 65532,
      "max": [
        8303.4052734375,
        32364.951171875,
        8424.6640625
      ],
      "min": [
        0,
        8067.0234375,
        0
      ],
      "type": "VEC3"
    },
    {
      "bufferView": 2,
      "byteOffset": 3931920,
      "componentType": 5126,
      "count": 65532,
      "max": [
        0.99993866682052612,
        0.99995309114456177,
        0.99999541044235229
      ],
      "min": [
        -0.99999499320983887,
        -0.99999290704727173,
        -0.99999994039535522
      ],
      "type": "VEC3"
    },
    {
      "bufferView": 3,
      "byteOffset": 2097024,
      "componentType": 5126,
      "count": 65532,
      "max": [
        0.99997270107269287,
        0.99998742341995239,
        0.99919801950454712,
        1
      ],
      "min": [
        -0.99999821186065674,
        -0.99994152784347534,
        -0.99996811151504517,
        -1
      ],
      "type": "VEC4"
    },
    {
      "bufferView": 1,
      "byteOffset": 1048512,
      "componentType": 5126,
      "count": 65532,
      "max": [
        0.99802297353744507,
        0.99802297353744507
      ],
      "min": [
        0.0039530000649392605,
        0.0039530000649392605
      ],
      "type": "VEC2"
    },
    {
      "bufferView": 0,
      "byteOffset": 2805492,
      "componentType": 5125,
      "count": 337521,
      "max": [
        65531
      ],
      "min": [
        0
      ],
      "type": "SCALAR"
    },
    {
      "bufferView": 2,
      "byteOffset": 4718304,
      "componentType": 5126,
      "count": 22455,
      "max": [
        8478.94140625,
        16283.8544921875,
        8238.751953125
      ],
      "min": [
        778.44140625,
        3598.169921875,
        594.71484375
      ],
      "type": "VEC3"
    },
    {
      "bufferView": 2,
      "byteOffset": 4987764,
      "componentType": 5126,
      "count": 22455,
      "max": [
        0.99977791309356689,
        0.99951833486557007,
        0.99992597103118896
      ],
      "min": [
        -0.99999696016311646,
        -0.99967086315155029,
        -0.99997949600219727
      ],
      "type": "VEC3"
    },
    {
      "bufferView": 3,
      "byteOffset": 3145536,
      "componentType": 5126,
      "count": 22455,
      "max": [
        0.99272125959396362,
        0.9999728798866272,
        0.99383985996246338,
        1
      ],
      "min": [
        -0.99997484683990479,
        -0.99743807315826416,
        -0.99994051456451416,
        -1
      ],
      "type": "VEC4"
    },
    {
      "bufferView": 1,
      "byteOffset": 1572768,
      "componentType": 5126,
      "count": 22455,
      "max": [
        0.99802297353744507,
        0.99790000915527344
      ],
      "min": [
        0.0039530000649392605,
        0.0039530000649392605
      ],
      "type": "VEC2"
    },
    {
      "bufferView": 0,
      "byteOffset": 4155576,
      "componentType": 5125,
      "count": 114672,
      "max": [
        22454
      ],
      "min": [
        0
      ],
      "type": "SCALAR"
    }
  ],
  "asset": {
    "extras": {
      "author": "Geoffrey Marchal (https://sketchfab.com/geoffreymarchal)",
      "license": "CC-BY-NC-4.0 (http://creativecommons.org/licenses/by-nc/4.0/)",
      "source": "https://sketchfab.com/3d-models/eirene-with-ploutus-e4aa25c3a4d5499d9dbc5176b4419bd3",
      "title": "Eirene with Ploutus"
    },
    "generator": "Sketchfab-5.6.2",
    "version": "2.0"
  },
  "bufferViews": [
    {
      "buffer": 0,
      "byteLength": 4614264,
      "byteOffset": 0,
      "name": "floatBufferViews",
      "target": 34963
    },
    {
      "buffer": 0,
      "byteLength": 1752408,
      "byteOffset": 4614264,
      "byteStride": 8,
      "name": "floatBufferViews",
      "target": 34962
    },
    {
      "buffer": 0,
      "byteLength": 5257224,
      "byteOffset": 6366672,
      "byteStride": 12,
      "name": "floatBufferViews",
      "target": 34962
    },
    {
      "buffer": 0,
      "byteLength": 3504816,
      "byteOffset": 11623896,
      "byteStride": 16,
      "name": "floatBufferViews",
      "target": 34962
    }
  ],
  "buffers": [
    {
      "byteLength": 15128712,
      "uri": "scene.bin"
    }
  ],
  "images": [
    {
      "uri": "textures/Material_0_metallicRoughness.png"
    },
    {
      "uri": "textures/Material_0_baseColor.jpeg"
    }
  ],
  "materials": [
    {
      "doubleSided": true,
      "name": "Material_0",
      "pbrMetallicRoughness": {
        "baseColorFactor": [
          1,
          1,
          1,
          1
        ],
        "baseColorTexture": {
          "index": 1,
          "texCoord": 0
        },
        "metallicFactor": 0,
        "metallicRoughnessTexture": {
          "index": 0,
          "texCoord": 0
        },
        "roughnessFactor": 1
      }
    }
  ],
  "meshes": [
    {
      "primitives": [
        {
          "attributes": {
            "NORMAL": 1,
            "POSITION": 0,
            "TANGENT": 2,
            "TEXCOORD_0": 3
          },
          "indices": 4,
          "material": 0,
          "mode": 4
        }
      ]
    },
    {
      "primitives": [
        {
          "attributes": {
            "NORMAL": 6,
            "POSITION": 5,
            "TANGENT": 7,
            "TEXCOORD_0": 8
          },
          "indices": 9,
          "material": 0,
          "mode": 4
        }
      ]
    },
    {
      "primitives": [
        {
          "attributes": {
            "NORMAL": 11,
            "POSITION": 10,
            "TANGENT": 12,
            "TEXCOORD_0": 13
          },
          "indices": 14,
          "material": 0,
          "mode": 4
        }
      ]
    },
    {
      "primitives": [
        {
          "attributes": {
            "NORMAL": 16,
            "POSITION": 15,
            "TANGENT": 17,
            "TEXCOORD_0": 18
          },
          "indices": 19,
          "material": 0,
          "mode": 4
        }
      ]
    }
  ],
  "nodes": [
    {
      "children": [
        1
      ],
      "name": "RootNode (gltf orientation matrix)",
      "rotation": [
        -0.70710678118654746,
        -0,
        -0,
        0.70710678118654757
      ]
    },
    {
      "children": [
        2
      ],
      "matrix": [
        0,
        0.99949812889099121,
        0.031678449362516403,
        0,
        0.007096494548022747,
        0.031677652150392532,
        -0.99947291612625122,
        0,
        -0.99997484683990479,
        0.00022480590268969536,
        -0.0070929327048361301,
        0,
        -17493.384765625,
        18592.041015625,
        1705.400390625,
        1
      ],
      "name": "RootNode (model correction matrix)"
    },
    {
      "children": [
        3,
        4,
        5,
        6
      ],
      "matrix": [
        1,
        0,
        0,
        0,
        0,
        1,
        0,
        0,
        0,
        0,
        1,
        0,
        -17542.171875,
        -9799.275390625,
        -12760.888671875,
        1
      ],
      "name": "eireyy.obj.cleaner.gles"
    },
    {
      "mesh": 0,
      "name": ""
    },
    {
      "mesh": 1,
      "name": ""
    },
    {
      "mesh": 2,
      "name": ""
    },
    {
      "mesh": 3,
      "name": ""
    }
  ],
  "samplers": [
    {
      "magFilter": 9728,
      "minFilter": 9728,
      "wrapS": 10497,
      "wrapT": 10497
    },
    {
      "magFilter": 9729,
      "minFilter": 9987,
      "wrapS": 10497,
      "wrapT": 10497
    }
  ],
  "scene": 0,
  "scenes": [
    {
      "name": "OSG_Scene",
      "nodes": [
        0
      ]
    }
  ],
  "textures": [
    {
      "sampler": 0,
      "source": 0
    },
    {
      "sampler": 1,
      "source": 1
    }
  ]
}

