{
  "accessors": [
    {
      "bufferView": 2,
      "componentType": 5126,
      "count": 65532,
      "max": [
        23.104331970214844,
        25.003625869750977,
        7.3919978141784668
      ],
      "min": [
        0.85243606567382812,
        2.1226348876953125,
        2.9409849643707275
      ],
      "type": "VEC3"
    },
    {
      "bufferView": 2,
      "byteOffset": 786384,
      "componentType": 5126,
      "count": 65532,
      "max": [
        0.99989461898803711,
        0.99997323751449585,
        0.999522864818573
      ],
      "min": [
        -0.99975812435150146,
        -0.99989724159240723,
        -0.99999558925628662
      ],
      "type": "VEC3"
    },
    {
      "bufferView": 3,
      "componentType": 5126,
      "count": 65532,
      "max": [
        0.99985802173614502,
        0.99994492530822754,
        0.9997178316116333,
        1
      ],
      "min": [
        -0.99996775388717651,
        -0.9999692440032959,
        -0.99998849630355835,
        -1
      ],
      "type": "VEC4"
    },
    {
      "bufferView": 1,
      "componentType": 5126,
      "count": 65532,
      "max": [
        0.99461901187896729,
        0.99941599369049072
      ],
      "min": [
        0.016102999448776245,
        0.0032430000137537718
      ],
      "type": "VEC2"
    },
    {
      "bufferView": 0,
      "componentType": 5125,
      "count": 342168,
      "max": [
        65531
      ],
      "min": [
        0
      ],
      "type": "SCALAR"
    },
    {
      "bufferView": 2,
      "byteOffset": 1572768,
      "componentType": 5126,
      "count": 65532,
      "max": [
        23.727899551391602,
        20.973918914794922,
        7.2379069328308105
      ],
      "min": [
        0,
        0,
        2.3588919639587402
      ],
      "type": "VEC3"
    },
    {
      "bufferView": 2,
      "byteOffset": 2359152,
      "componentType": 5126,
      "count": 65532,
      "max": [
        0.99996310472488403,
        0.99999046325683594,
        0.93429124355316162
      ],
      "min": [
        -0.9880136251449585,
        -0.99444973468780518,
        -0.99999910593032837
      ],
      "type": "VEC3"
    },
    {
      "bufferView": 3,
      "byteOffset": 1048512,
      "componentType": 5126,
      "count": 65532,
      "max": [
        0.99999338388442993,
        0.99999338388442993,
        0.99976193904876709,
        1
      ],
      "min": [
        -0.99994385242462158,
        -0.99999409914016724,
        -0.9999346137046814,
        -1
      ],
      "type": "VEC4"
    },
    {
      "bufferView": 1,
      "byteOffset": 524256,
      "componentType": 5126,
      "count": 65532,
      "max": [
        0.99276202917098999,
        0.99885702133178711
      ],
      "min": [
        0.0038989998865872622,
        0.0039110002107918262
      ],
      "type": "VEC2"
    },
    {
      "bufferView": 0,
      "byteOffset": 1368672,
      "componentType": 5125,
      "count": 314127,
      "max": [
        65531
      ],
      "min": [
        0
      ],
      "type": "SCALAR"
    },
    {
      "bufferView": 2,
      "byteOffset": 3145536,
      "componentType": 5126,
      "count": 65532,
      "max": [
        24.759485244750977,
        20.614665985107422,
        7.7381258010864258
      ],
      "min": [
        0.30487442016601562,
        0.84488296508789062,
        2.5757639408111572
      ],
      "type": "VEC3"
    },
    {
      "bufferView": 2,
      "byteOffset": 3931920,
      "componentType": 5126,
      "count": 65532,
      "max": [
        0.99996310472488403,
        0.99995112419128418,
        0.99966913461685181
      ],
      "min": [
        -0.99902063608169556,
        -0.9997936487197876,
        -0.99999862909317017
      ],
      "type": "VEC3"
    },
    {
      "bufferView": 3,
      "byteOffset": 2097024,
      "componentType": 5126,
      "count": 65532,
      "max": [
        0.99998623132705688,
        0.99999034404754639,
        0.99994874000549316,
        1
      ],
      "min": [
        -0.99989014863967896,
        -0.9998936653137207,
        -0.99968624114990234,
        -1
      ],
      "type": "VEC4"
    },
    {
      "bufferView": 1,
      "byteOffset": 1048512,
      "componentType": 5126,
      "count": 65532,
      "max": [
        0.99278998374938965,
        0.9996190071105957
      ],
      "min": [
        0.0039510000497102737,
        0.0039059999398887157
      ],
      "type": "VEC2"
    },
    {
      "bufferView": 0,
      "byteOffset": 2625180,
      "componentType": 5125,
      "count": 304257,
      "max": [
        65531
      ],
      "min": [
        0
      ],
      "type": "SCALAR"
    },
    {
      "bufferView": 2,
      "byteOffset": 4718304,
      "componentType": 5126,
      "count": 65532,
      "max": [
        24.188230514526367,
        20.574790954589844,
        7.7729358673095703
      ],
      "min": [
        0.62859344482421875,
        0.17576217651367188,
        1.6949539184570312
      ],
      "type": "VEC3"
    },
    {
      "bufferView": 2,
      "byteOffset": 5504688,
      "componentType": 5126,
      "count": 65532,
      "max": [
        0.99994266033172607,
        0.99993854761123657,
        0.99969786405563354
      ],
      "min": [
        -0.99998974800109863,
        -0.99998974800109863,
        -0.99999797344207764
      ],
      "type": "VEC3"
    },
    {
      "bufferView": 3,
      "byteOffset": 3145536,
      "componentType": 5126,
      "count": 65532,
      "max": [
        0.99969416856765747,
        0.99996495246887207,
        0.99985224008560181,
        1
      ],
      "min": [
        -0.99991333484649658,
        -0.99999988079071045,
        -0.9999997615814209,
        -1
      ],
      "type": "VEC4"
    },
    {
      "bufferView": 1,
      "byteOffset": 1572768,
      "componentType": 5126,
      "count": 65532,
      "max": [
        0.9969480037689209,
        0.99992698431015015
      ],
      "min": [
        0.0050039999186992645,
        0.0035180000122636557
      ],
      "type": "VEC2"
    },
    {
      "bufferView": 0,
      "byteOffset": 3842208,
      "componentType": 5125,
      "count": 302037,
      "max": [
        65531
      ],
      "min": [
        0
      ],
      "type": "SCALAR"
    },
    {
      "bufferView": 2,
      "byteOffset": 6291072,
      "componentType": 5126,
      "count": 65532,
      "max": [
        24.599422454833984,
        21.879373550415039,
        7.6750116348266602
      ],
      "min": [
        1.9800148010253906,
        0.64217948913574219,
        0
      ],
      "type": "VEC3"
    },
    {
      "bufferView": 2,
      "byteOffset": 7077456,
      "componentType": 5126,
      "count": 65532,
      "max": [
        0.99998736381530762,
        0.99997735023498535,
        0.9999384880065918
      ],
      "min": [
        -0.99999874830245972,
        -0.99997502565383911,
        -0.99997353553771973
      ],
      "type": "VEC3"
    },
    {
      "bufferView": 3,
      "byteOffset": 4194048,
      "componentType": 5126,
      "count": 65532,
      "max": [
        0.9999922513961792,
        0.99997711181640625,
        0.99997246265411377,
        1
      ],
      "min": [
        -0.99996036291122437,
        -0.99999988079071045,
        -0.99995017051696777,
        -1
      ],
      "type": "VEC4"
    },
    {
      "bufferView": 1,
      "byteOffset": 2097024,
      "componentType": 5126,
      "count": 65532,
      "max": [
        0.99424499273300171,
        0.99931800365447998
      ],
      "min": [
        0.0050070001743733883,
        0.0038169999606907368
      ],
      "type": "VEC2"
    },
    {
      "bufferView": 0,
      "byteOffset": 5050356,
      "componentType": 5125,
      "count": 311862,
      "max": [
        65531
      ],
      "min": [
        0
      ],
      "type": "SCALAR"
    },
    {
      "bufferView": 2,
      "byteOffset": 7863840,
      "componentType": 5126,
      "count": 65532,
      "max": [
        17.661079406738281,
        25.593255996704102,
        7.2518815994262695
      ],
      "min": [
        2.943267822265625,
        0.81866836547851562,
        0.019596099853515625
      ],
      "type": "VEC3"
    },
    {
      "bufferView": 2,
      "byteOffset": 8650224,
      "componentType": 5126,
      "count": 65532,
      "max": [
        0.99996447563171387,
        0.99979478120803833,
        0.99875622987747192
      ],
      "min": [
        -0.99999547004699707,
        -0.99999010562896729,
        -0.99999886751174927
      ],
      "type": "VEC3"
    },
    {
      "bufferView": 3,
      "byteOffset": 5242560,
      "componentType": 5126,
      "count": 65532,
      "max": [
        0.99999356269836426,
        0.99985665082931519,
        0.99999743700027466,
        1
      ],
      "min": [
        -0.99995708465576172,
        -0.99999338388442993,
        -0.9999459981918335,
        -1
      ],
      "type": "VEC4"
    },
    {
      "bufferView": 1,
      "byteOffset": 2621280,
      "componentType": 5126,
      "count": 65532,
      "max": [
        0.99393600225448608,
        0.99976897239685059
      ],
      "min": [
        0.0049009998328983784,
        0.022839000448584557
      ],
      "type": "VEC2"
    },
    {
      "bufferView": 0,
      "byteOffset": 6297804,
      "componentType": 5125,
      "count": 308727,
      "max": [
        65531
      ],
      "min": [
        0
      ],
      "type": "SCALAR"
    },
    {
      "bufferView": 2,
      "byteOffset": 9436608,
      "componentType": 5126,
      "count": 43860,
      "max": [
        23.813116073608398,
        25.896530151367188,
        7.3970422744750977
      ],
      "min": [
        0.66819953918457031,
        3.1117744445800781,
        0.0075631141662597656
      ],
      "type": "VEC3"
    },
    {
      "bufferView": 2,
      "byteOffset": 9962928,
      "componentType": 5126,
      "count": 43860,
      "max": [
        0.99998652935028076,
        0.99997735023498535,
        0.99999010562896729
      ],
      "min": [
        -0.99998778104782104,
        -0.99998414516448975,
        -0.99999678134918213
      ],
      "type": "VEC3"
    },
    {
      "bufferView": 3,
      "byteOffset": 6291072,
      "componentType": 5126,
      "count": 43860,
      "max": [
        0.99999314546585083,
        0.99992489814758301,
        0.99997693300247192,
        1
      ],
      "min": [
        -0.9999852180480957,
        -0.99997049570083618,
        -0.99992156028747559,
        -1
      ],
      "type": "VEC4"
    },
    {
      "bufferView": 1,
      "byteOffset": 3145536,
      "componentType": 5126,
      "count": 43860,
      "max": [
        0.99554502964019775,
        0.9993630051612854
      ],
      "min": [
        0.0039579998701810837,
        0.04514399915933609
      ],
      "type": "VEC2"
    },
    {
      "bufferView": 0,
      "byteOffset": 7532712,
      "componentType": 5125,
      "count": 204228,
      "max": [
        43859
      ],
      "min": [
        0
      ],
      "type": "SCALAR"
    }
  ],
  "asset": {
    "extras": {
      "author": "Manoelodrone (https://sketchfab.com/Manoelodrone)",
      "license": "CC-BY-4.0 (http://creativecommons.org/licenses/by/4.0/)",
      "source": "https://sketchfab.com/models/4ecef3b869e64d609b386cfe2d615c94",
      "title": "Big Roots"
    },
    "generator": "Sketchfab-3.18.5",
    "version": "2.0"
  },
  "bufferViews": [
    {
      "buffer": 0,
      "byteLength": 8349624,
      "byteOffset": 0,
      "name": "floatBufferViews",
      "target": 34963
    },
    {
      "buffer": 0,
      "byteLength": 3496416,
      "byteOffset": 8349624,
      "byteStride": 8,
      "name": "floatBufferViews",
      "target": 34962
    },
    {
      "buffer": 0,
      "byteLength": 10489248,
      "byteOffset": 11846040,
      "byteStride": 12,
      "name": "floatBufferViews",
      "target": 34962
    },
    {
      "buffer": 0,
      "byteLength": 6992832,
      "byteOffset": 22335288,
      "byteStride": 16,
      "name": "floatBufferViews",
      "target": 34962
    }
  ],
  "buffers": [
    {
      "byteLength": 29328120,
      "uri": "scene.bin"
    }
  ],
  "images": [
    {
      "uri": "textures/material_0_baseColor.jpeg"
    }
  ],
  "materials": [
    {
      "doubleSided": true,
      "emissiveFactor": [
        0,
        0,
        0
      ],
      "name": "material_0",
      "pbrMetallicRoughness": {
        "baseColorFactor": [
          1,
          1,
          1,
          1
        ],
        "baseColorTexture": {
          "index": 0,
          "texCoord": 0
        },
        "metallicFactor": 0,
        "roughnessFactor": 0.59999999999999998
      }
    }
  ],
  "meshes": [
    {
      "primitives": [
        {
          "attributes": {
            "NORMAL": 1,
            "POSITION": 0,
            "TANGENT": 2,
            "TEXCOORD_0": 3
          },
          "indices": 4,
          "material": 0,
          "mode": 4
        }
      ]
    },
    {
      "primitives": [
        {
          "attributes": {
            "NORMAL": 6,
            "POSITION": 5,
            "TANGENT": 7,
            "TEXCOORD_0": 8
          },
          "indices": 9,
          "material": 0,
          "mode": 4
        }
      ]
    },
    {
      "primitives": [
        {
          "attributes": {
            "NORMAL": 11,
            "POSITION": 10,
            "TANGENT": 12,
            "TEXCOORD_0": 13
          },
          "indices": 14,
          "material": 0,
          "mode": 4
        }
      ]
    },
    {
      "primitives": [
        {
          "attributes": {
            "NORMAL": 16,
            "POSITION": 15,
            "TANGENT": 17,
            "TEXCOORD_0": 18
          },
          "indices": 19,
          "material": 0,
          "mode": 4
        }
      ]
    },
    {
      "primitives": [
        {
          "attributes": {
            "NORMAL": 21,
            "POSITION": 20,
            "TANGENT": 22,
            "TEXCOORD_0": 23
          },
          "indices": 24,
          "material": 0,
          "mode": 4
        }
      ]
    },
    {
      "primitives": [
        {
          "attributes": {
            "NORMAL": 26,
            "POSITION": 25,
            "TANGENT": 27,
            "TEXCOORD_0": 28
          },
          "indices": 29,
          "material": 0,
          "mode": 4
        }
      ]
    },
    {
      "primitives": [
        {
          "attributes": {
            "NORMAL": 31,
            "POSITION": 30,
            "TANGENT": 32,
            "TEXCOORD_0": 33
          },
          "indices": 34,
          "material": 0,
          "mode": 4
        }
      ]
    }
  ],
  "nodes": [
    {
      "children": [
        1
      ],
      "name": "RootNode (gltf orientation matrix)",
      "rotation": [
        -0.70710678118654746,
        -0,
        -0,
        0.70710678118654757
      ]
    },
    {
      "children": [
        2
      ],
      "matrix": [
        0.99887871742248535,
        -0.0044651511125266552,
        0.047130953520536423,
        0,
        -0.01426356565207243,
        -0.97766727209091187,
        0.20967410504817963,
        0,
        0.045142166316509247,
        -0.21011126041412354,
        -0.97663474082946777,
        0,
        -0.10746826231479645,
        -19.693758010864258,
        0.60692226886749268,
        1
      ],
      "name": "RootNode (model correction matrix)"
    },
    {
      "children": [
        3,
        4,
        5,
        6,
        7,
        8,
        9
      ],
      "matrix": [
        1,
        0,
        0,
        0,
        0,
        1,
        0,
        0,
        0,
        0,
        1,
        0,
        -10.864482879638672,
        -22.834770202636719,
        -4.5920119285583496,
        1
      ],
      "name": "arvore atras de casa.obj.cleaner.gles"
    },
    {
      "mesh": 0,
      "name": ""
    },
    {
      "mesh": 1,
      "name": ""
    },
    {
      "mesh": 2,
      "name": ""
    },
    {
      "mesh": 3,
      "name": ""
    },
    {
      "mesh": 4,
      "name": ""
    },
    {
      "mesh": 5,
      "name": ""
    },
    {
      "mesh": 6,
      "name": ""
    }
  ],
  "samplers": [
    {
      "magFilter": 9729,
      "minFilter": 9987,
      "wrapS": 10497,
      "wrapT": 10497
    }
  ],
  "scene": 0,
  "scenes": [
    {
      "name": "OSG_Scene",
      "nodes": [
        0
      ]
    }
  ],
  "textures": [
    {
      "sampler": 0,
      "source": 0
    }
  ]
}

